solid Untitled-548dc9e7
facet normal 0.0 0.0 -1.0
  outer loop
    vertex 0.06761588 21.160929999999997 0.0
    vertex 0.0 4.999999999999999 0.0
    vertex 0.0 19.999999999999996 0.0
  endloop
endfacet
facet normal 0.0 0.0 -1.0
  outer loop
    vertex 0.0 4.999999999999999 0.0
    vertex 0.06761588 21.160929999999997 0.0
    vertex 0.061557629999999995 4.217827 0.0
  endloop
endfacet
facet normal 0.0 0.0 -1.0
  outer loop
    vertex 0.061557629999999995 4.217827 0.0
    vertex 0.06761588 21.160929999999997 0.0
    vertex 0.24471709999999997 3.454915 0.0
  endloop
endfacet
facet normal 0.0 0.0 -1.0
  outer loop
    vertex 0.24471709999999997 3.454915 0.0
    vertex 0.06761588 21.160929999999997 0.0
    vertex 0.2695507999999999 22.30616 0.0
  endloop
endfacet
facet normal 0.0 0.0 -1.0
  outer loop
    vertex 0.24471709999999997 3.454915 0.0
    vertex 0.2695507999999999 22.30616 0.0
    vertex 0.5449670999999999 2.730047 0.0
  endloop
endfacet
facet normal 0.0 0.0 -1.0
  outer loop
    vertex 0.5449670999999999 2.730047 0.0
    vertex 0.2695507999999999 22.30616 0.0
    vertex 0.6030733 23.420199999999998 0.0
  endloop
endfacet
facet normal 0.0 0.0 -1.0
  outer loop
    vertex 0.5449670999999999 2.730047 0.0
    vertex 0.6030733 23.420199999999998 0.0
    vertex 0.9549147999999998 2.061074 0.0
  endloop
endfacet
facet normal 0.0 0.0 -1.0
  outer loop
    vertex 0.9549147999999998 2.061074 0.0
    vertex 0.6030733 23.420199999999998 0.0
    vertex 1.0636739999999998 24.487989999999996 0.0
  endloop
endfacet
facet normal 0.0 0.0 -1.0
  outer loop
    vertex 0.9549147999999998 2.061074 0.0
    vertex 1.0636739999999998 24.487989999999996 0.0
    vertex 1.4644659999999998 1.4644659999999998 0.0
  endloop
endfacet
facet normal 0.0 0.0 -1.0
  outer loop
    vertex 1.4644659999999998 1.4644659999999998 0.0
    vertex 1.0636739999999998 24.487989999999996 0.0
    vertex 1.645122 25.49509 0.0
  endloop
endfacet
facet normal 0.0 0.0 -1.0
  outer loop
    vertex 1.4644659999999998 1.4644659999999998 0.0
    vertex 1.645122 25.49509 0.0
    vertex 2.061074 0.9549147999999998 0.0
  endloop
endfacet
facet normal 0.0 0.0 -1.0
  outer loop
    vertex 2.061074 0.9549147999999998 0.0
    vertex 1.645122 25.49509 0.0
    vertex 2.3395559999999995 26.42788 0.0
  endloop
endfacet
facet normal 0.0 0.0 -1.0
  outer loop
    vertex 2.061074 0.9549147999999998 0.0
    vertex 2.3395559999999995 26.42788 0.0
    vertex 2.730047 0.5449670999999999 0.0
  endloop
endfacet
facet normal 0.0 0.0 -1.0
  outer loop
    vertex 2.730047 0.5449670999999999 0.0
    vertex 2.3395559999999995 26.42788 0.0
    vertex 3.1375829999999993 27.273739999999997 0.0
  endloop
endfacet
facet normal 0.0 0.0 -1.0
  outer loop
    vertex 2.730047 0.5449670999999999 0.0
    vertex 3.1375829999999993 27.273739999999997 0.0
    vertex 3.454915 0.24471709999999997 0.0
  endloop
endfacet
facet normal 0.0 0.0 -1.0
  outer loop
    vertex 3.454915 0.24471709999999997 0.0
    vertex 3.1375829999999993 27.273739999999997 0.0
    vertex 4.028414 28.02123 0.0
  endloop
endfacet
facet normal 0.0 0.0 -1.0
  outer loop
    vertex 3.454915 0.24471709999999997 0.0
    vertex 4.028414 28.02123 0.0
    vertex 4.217827 0.061557629999999995 0.0
  endloop
endfacet
facet normal 0.0 0.0 -1.0
  outer loop
    vertex 4.217827 0.061557629999999995 0.0
    vertex 4.028414 28.02123 0.0
    vertex 4.999999999999999 28.66026 0.0
  endloop
endfacet
facet normal 0.0 0.0 -1.0
  outer loop
    vertex 4.217827 0.061557629999999995 0.0
    vertex 4.999999999999999 28.66026 0.0
    vertex 4.999999999999999 0.0 0.0
  endloop
endfacet
facet normal 0.0 0.0 -1.0
  outer loop
    vertex 4.999999999999999 0.0 0.0
    vertex 4.999999999999999 28.66026 0.0
    vertex 6.0392019999999995 29.182159999999996 0.0
  endloop
endfacet
facet normal 0.0 0.0 -1.0
  outer loop
    vertex 4.999999999999999 0.0 0.0
    vertex 6.0392019999999995 29.182159999999996 0.0
    vertex 19.999999999999996 0.0 0.0
  endloop
endfacet
facet normal 0.0 0.0 -1.0
  outer loop
    vertex 19.999999999999996 0.0 0.0
    vertex 6.0392019999999995 29.182159999999996 0.0
    vertex 7.131967999999999 29.579899999999995 0.0
  endloop
endfacet
facet normal 0.0 0.0 -1.0
  outer loop
    vertex 19.999999999999996 0.0 0.0
    vertex 7.131967999999999 29.579899999999995 0.0
    vertex 8.263518 29.848079999999996 0.0
  endloop
endfacet
facet normal 0.0 0.0 -1.0
  outer loop
    vertex 19.999999999999996 0.0 0.0
    vertex 8.263518 29.848079999999996 0.0
    vertex 9.418551 29.98308 0.0
  endloop
endfacet
facet normal 0.0 0.0 -1.0
  outer loop
    vertex 19.999999999999996 0.0 0.0
    vertex 9.418551 29.98308 0.0
    vertex 10.581449999999998 29.98308 0.0
  endloop
endfacet
facet normal 0.0 0.0 -1.0
  outer loop
    vertex 19.999999999999996 0.0 0.0
    vertex 10.581449999999998 29.98308 0.0
    vertex 11.736479999999998 29.848079999999996 0.0
  endloop
endfacet
facet normal 0.0 0.0 -1.0
  outer loop
    vertex 19.999999999999996 0.0 0.0
    vertex 11.736479999999998 29.848079999999996 0.0
    vertex 12.868029999999997 29.579899999999995 0.0
  endloop
endfacet
facet normal 0.0 0.0 -1.0
  outer loop
    vertex 19.999999999999996 0.0 0.0
    vertex 12.868029999999997 29.579899999999995 0.0
    vertex 13.960799999999999 29.182159999999996 0.0
  endloop
endfacet
facet normal 0.0 0.0 -1.0
  outer loop
    vertex 19.999999999999996 0.0 0.0
    vertex 13.960799999999999 29.182159999999996 0.0
    vertex 14.999999999999998 28.66026 0.0
  endloop
endfacet
facet normal 0.0 0.0 -1.0
  outer loop
    vertex 19.999999999999996 0.0 0.0
    vertex 14.999999999999998 28.66026 0.0
    vertex 15.971589999999999 28.02123 0.0
  endloop
endfacet
facet normal 0.0 0.0 -1.0
  outer loop
    vertex 19.999999999999996 0.0 0.0
    vertex 15.971589999999999 28.02123 0.0
    vertex 16.86242 27.273739999999997 0.0
  endloop
endfacet
facet normal 0.0 0.0 -1.0
  outer loop
    vertex 19.999999999999996 0.0 0.0
    vertex 16.86242 27.273739999999997 0.0
    vertex 17.660439999999998 26.42788 0.0
  endloop
endfacet
facet normal 0.0 0.0 -1.0
  outer loop
    vertex 19.999999999999996 0.0 0.0
    vertex 17.660439999999998 26.42788 0.0
    vertex 18.35488 25.49509 0.0
  endloop
endfacet
facet normal 0.0 0.0 -1.0
  outer loop
    vertex 19.999999999999996 0.0 0.0
    vertex 18.35488 25.49509 0.0
    vertex 18.93633 24.487989999999996 0.0
  endloop
endfacet
facet normal 0.0 0.0 -1.0
  outer loop
    vertex 19.999999999999996 0.0 0.0
    vertex 18.93633 24.487989999999996 0.0
    vertex 19.39693 23.420199999999998 0.0
  endloop
endfacet
facet normal 0.0 0.0 -1.0
  outer loop
    vertex 19.999999999999996 0.0 0.0
    vertex 19.39693 23.420199999999998 0.0
    vertex 19.730449999999998 22.30616 0.0
  endloop
endfacet
facet normal 0.0 0.0 -1.0
  outer loop
    vertex 19.999999999999996 0.0 0.0
    vertex 19.730449999999998 22.30616 0.0
    vertex 19.932379999999995 21.160929999999997 0.0
  endloop
endfacet
facet normal 0.0 0.0 -1.0
  outer loop
    vertex 19.999999999999996 0.0 0.0
    vertex 19.932379999999995 21.160929999999997 0.0
    vertex 19.999999999999996 19.999999999999996 0.0
  endloop
endfacet
facet normal -0.0 -0.0 1.0
  outer loop
    vertex 0.061557629999999995 4.217827 12.0
    vertex 0.0 19.999999999999996 12.0
    vertex 0.0 4.999999999999999 12.0
  endloop
endfacet
facet normal -0.0 -0.0 1.0
  outer loop
    vertex 0.0 19.999999999999996 12.0
    vertex 0.061557629999999995 4.217827 12.0
    vertex 0.06761588 21.160929999999997 12.0
  endloop
endfacet
facet normal -0.0 -0.0 1.0
  outer loop
    vertex 0.06761588 21.160929999999997 12.0
    vertex 0.061557629999999995 4.217827 12.0
    vertex 0.24471709999999997 3.454915 12.0
  endloop
endfacet
facet normal -0.0 -0.0 1.0
  outer loop
    vertex 0.06761588 21.160929999999997 12.0
    vertex 0.24471709999999997 3.454915 12.0
    vertex 0.2695507999999999 22.30616 12.0
  endloop
endfacet
facet normal -0.0 -0.0 1.0
  outer loop
    vertex 0.2695507999999999 22.30616 12.0
    vertex 0.24471709999999997 3.454915 12.0
    vertex 0.5449670999999999 2.730047 12.0
  endloop
endfacet
facet normal -0.0 -0.0 1.0
  outer loop
    vertex 0.2695507999999999 22.30616 12.0
    vertex 0.5449670999999999 2.730047 12.0
    vertex 0.6030733 23.420199999999998 12.0
  endloop
endfacet
facet normal -0.0 -0.0 1.0
  outer loop
    vertex 0.6030733 23.420199999999998 12.0
    vertex 0.5449670999999999 2.730047 12.0
    vertex 0.9549147999999998 2.061074 12.0
  endloop
endfacet
facet normal -0.0 -0.0 1.0
  outer loop
    vertex 0.6030733 23.420199999999998 12.0
    vertex 0.9549147999999998 2.061074 12.0
    vertex 1.0636739999999998 24.487989999999996 12.0
  endloop
endfacet
facet normal -0.0 -0.0 1.0
  outer loop
    vertex 1.0636739999999998 24.487989999999996 12.0
    vertex 0.9549147999999998 2.061074 12.0
    vertex 1.4644659999999998 1.4644659999999998 12.0
  endloop
endfacet
facet normal -0.0 -0.0 1.0
  outer loop
    vertex 1.0636739999999998 24.487989999999996 12.0
    vertex 1.4644659999999998 1.4644659999999998 12.0
    vertex 1.645122 25.49509 12.0
  endloop
endfacet
facet normal -0.0 -0.0 1.0
  outer loop
    vertex 1.645122 25.49509 12.0
    vertex 1.4644659999999998 1.4644659999999998 12.0
    vertex 2.061074 0.9549147999999998 12.0
  endloop
endfacet
facet normal -0.0 -0.0 1.0
  outer loop
    vertex 1.645122 25.49509 12.0
    vertex 2.061074 0.9549147999999998 12.0
    vertex 2.3395559999999995 26.42788 12.0
  endloop
endfacet
facet normal -0.0 -0.0 1.0
  outer loop
    vertex 2.3395559999999995 26.42788 12.0
    vertex 2.061074 0.9549147999999998 12.0
    vertex 2.730047 0.5449670999999999 12.0
  endloop
endfacet
facet normal -0.0 -0.0 1.0
  outer loop
    vertex 2.3395559999999995 26.42788 12.0
    vertex 2.730047 0.5449670999999999 12.0
    vertex 3.1375829999999993 27.273739999999997 12.0
  endloop
endfacet
facet normal -0.0 -0.0 1.0
  outer loop
    vertex 3.1375829999999993 27.273739999999997 12.0
    vertex 2.730047 0.5449670999999999 12.0
    vertex 3.454915 0.24471709999999997 12.0
  endloop
endfacet
facet normal -0.0 -0.0 1.0
  outer loop
    vertex 3.1375829999999993 27.273739999999997 12.0
    vertex 3.454915 0.24471709999999997 12.0
    vertex 4.028414 28.02123 12.0
  endloop
endfacet
facet normal -0.0 -0.0 1.0
  outer loop
    vertex 4.028414 28.02123 12.0
    vertex 3.454915 0.24471709999999997 12.0
    vertex 4.217827 0.061557629999999995 12.0
  endloop
endfacet
facet normal -0.0 -0.0 1.0
  outer loop
    vertex 4.028414 28.02123 12.0
    vertex 4.217827 0.061557629999999995 12.0
    vertex 4.999999999999999 28.66026 12.0
  endloop
endfacet
facet normal -0.0 -0.0 1.0
  outer loop
    vertex 4.999999999999999 28.66026 12.0
    vertex 4.217827 0.061557629999999995 12.0
    vertex 4.999999999999999 0.0 12.0
  endloop
endfacet
facet normal -0.0 -0.0 1.0
  outer loop
    vertex 4.999999999999999 28.66026 12.0
    vertex 4.999999999999999 0.0 12.0
    vertex 19.999999999999996 0.0 12.0
  endloop
endfacet
facet normal -0.0 -0.0 1.0
  outer loop
    vertex 4.999999999999999 28.66026 12.0
    vertex 19.999999999999996 0.0 12.0
    vertex 6.0392019999999995 29.182159999999996 12.0
  endloop
endfacet
facet normal -0.0 -0.0 1.0
  outer loop
    vertex 6.0392019999999995 29.182159999999996 12.0
    vertex 19.999999999999996 0.0 12.0
    vertex 7.131967999999999 29.579899999999995 12.0
  endloop
endfacet
facet normal -0.0 -0.0 1.0
  outer loop
    vertex 7.131967999999999 29.579899999999995 12.0
    vertex 19.999999999999996 0.0 12.0
    vertex 8.263518 29.848079999999996 12.0
  endloop
endfacet
facet normal -0.0 -0.0 1.0
  outer loop
    vertex 8.263518 29.848079999999996 12.0
    vertex 19.999999999999996 0.0 12.0
    vertex 9.418551 29.98308 12.0
  endloop
endfacet
facet normal -0.0 -0.0 1.0
  outer loop
    vertex 9.418551 29.98308 12.0
    vertex 19.999999999999996 0.0 12.0
    vertex 10.581449999999998 29.98308 12.0
  endloop
endfacet
facet normal -0.0 -0.0 1.0
  outer loop
    vertex 10.581449999999998 29.98308 12.0
    vertex 19.999999999999996 0.0 12.0
    vertex 11.736479999999998 29.848079999999996 12.0
  endloop
endfacet
facet normal -0.0 -0.0 1.0
  outer loop
    vertex 11.736479999999998 29.848079999999996 12.0
    vertex 19.999999999999996 0.0 12.0
    vertex 12.868029999999997 29.579899999999995 12.0
  endloop
endfacet
facet normal -0.0 -0.0 1.0
  outer loop
    vertex 12.868029999999997 29.579899999999995 12.0
    vertex 19.999999999999996 0.0 12.0
    vertex 13.960799999999999 29.182159999999996 12.0
  endloop
endfacet
facet normal -0.0 -0.0 1.0
  outer loop
    vertex 13.960799999999999 29.182159999999996 12.0
    vertex 19.999999999999996 0.0 12.0
    vertex 14.999999999999998 28.66026 12.0
  endloop
endfacet
facet normal -0.0 -0.0 1.0
  outer loop
    vertex 14.999999999999998 28.66026 12.0
    vertex 19.999999999999996 0.0 12.0
    vertex 15.971589999999999 28.02123 12.0
  endloop
endfacet
facet normal -0.0 -0.0 1.0
  outer loop
    vertex 15.971589999999999 28.02123 12.0
    vertex 19.999999999999996 0.0 12.0
    vertex 16.86242 27.273739999999997 12.0
  endloop
endfacet
facet normal -0.0 -0.0 1.0
  outer loop
    vertex 16.86242 27.273739999999997 12.0
    vertex 19.999999999999996 0.0 12.0
    vertex 17.660439999999998 26.42788 12.0
  endloop
endfacet
facet normal -0.0 -0.0 1.0
  outer loop
    vertex 17.660439999999998 26.42788 12.0
    vertex 19.999999999999996 0.0 12.0
    vertex 18.35488 25.49509 12.0
  endloop
endfacet
facet normal -0.0 -0.0 1.0
  outer loop
    vertex 18.35488 25.49509 12.0
    vertex 19.999999999999996 0.0 12.0
    vertex 18.93633 24.487989999999996 12.0
  endloop
endfacet
facet normal -0.0 -0.0 1.0
  outer loop
    vertex 18.93633 24.487989999999996 12.0
    vertex 19.999999999999996 0.0 12.0
    vertex 19.39693 23.420199999999998 12.0
  endloop
endfacet
facet normal -0.0 -0.0 1.0
  outer loop
    vertex 19.39693 23.420199999999998 12.0
    vertex 19.999999999999996 0.0 12.0
    vertex 19.730449999999998 22.30616 12.0
  endloop
endfacet
facet normal -0.0 -0.0 1.0
  outer loop
    vertex 19.730449999999998 22.30616 12.0
    vertex 19.999999999999996 0.0 12.0
    vertex 19.932379999999995 21.160929999999997 12.0
  endloop
endfacet
facet normal -0.0 -0.0 1.0
  outer loop
    vertex 19.932379999999995 21.160929999999997 12.0
    vertex 19.999999999999996 0.0 12.0
    vertex 19.999999999999996 19.999999999999996 12.0
  endloop
endfacet
facet normal 0.9983079821950891 0.05814785194286699 0.0
  outer loop
    vertex 19.932379999999995 21.160929999999997 0.0
    vertex 19.999999999999996 19.999999999999996 12.0
    vertex 19.999999999999996 19.999999999999996 0.0
  endloop
endfacet
facet normal 0.9983079821950891 0.05814785194286699 0.0
  outer loop
    vertex 19.999999999999996 19.999999999999996 12.0
    vertex 19.932379999999995 21.160929999999997 0.0
    vertex 19.932379999999995 21.160929999999997 12.0
  endloop
endfacet
facet normal 0.9999999999999999 0.0 0.0
  outer loop
    vertex 19.999999999999996 19.999999999999996 0.0
    vertex 19.999999999999996 0.0 12.0
    vertex 19.999999999999996 0.0 0.0
  endloop
endfacet
facet normal 0.9999999999999999 0.0 0.0
  outer loop
    vertex 19.999999999999996 0.0 12.0
    vertex 19.999999999999996 19.999999999999996 0.0
    vertex 19.999999999999996 19.999999999999996 12.0
  endloop
endfacet
facet normal -0.0 -1.0 -0.0
  outer loop
    vertex 19.999999999999996 0.0 12.0
    vertex 4.999999999999999 0.0 0.0
    vertex 19.999999999999996 0.0 0.0
  endloop
endfacet
facet normal -0.0 -1.0 -0.0
  outer loop
    vertex 4.999999999999999 0.0 0.0
    vertex 19.999999999999996 0.0 12.0
    vertex 4.999999999999999 0.0 12.0
  endloop
endfacet
facet normal -0.07845818353458715 -0.9969174055238743 -0.0
  outer loop
    vertex 4.999999999999999 0.0 12.0
    vertex 4.217827 0.061557629999999995 0.0
    vertex 4.999999999999999 0.0 0.0
  endloop
endfacet
facet normal -0.07845818353458715 -0.9969174055238743 -0.0
  outer loop
    vertex 4.217827 0.061557629999999995 0.0
    vertex 4.999999999999999 0.0 12.0
    vertex 4.217827 0.061557629999999995 12.0
  endloop
endfacet
facet normal -0.23344597092393943 -0.9723697746533357 -0.0
  outer loop
    vertex 4.217827 0.061557629999999995 12.0
    vertex 3.454915 0.24471709999999997 0.0
    vertex 4.217827 0.061557629999999995 0.0
  endloop
endfacet
facet normal -0.23344597092393943 -0.9723697746533357 -0.0
  outer loop
    vertex 3.454915 0.24471709999999997 0.0
    vertex 4.217827 0.061557629999999995 12.0
    vertex 3.454915 0.24471709999999997 12.0
  endloop
endfacet
facet normal -0.38268326207653164 -0.9238796030470986 -0.0
  outer loop
    vertex 3.454915 0.24471709999999997 12.0
    vertex 2.730047 0.5449670999999999 0.0
    vertex 3.454915 0.24471709999999997 0.0
  endloop
endfacet
facet normal -0.38268326207653164 -0.9238796030470986 -0.0
  outer loop
    vertex 2.730047 0.5449670999999999 0.0
    vertex 3.454915 0.24471709999999997 12.0
    vertex 2.730047 0.5449670999999999 12.0
  endloop
endfacet
facet normal -0.5224990450201603 -0.852639870023107 -0.0
  outer loop
    vertex 2.730047 0.5449670999999999 12.0
    vertex 2.061074 0.9549147999999998 0.0
    vertex 2.730047 0.5449670999999999 0.0
  endloop
endfacet
facet normal -0.5224990450201603 -0.852639870023107 -0.0
  outer loop
    vertex 2.061074 0.9549147999999998 0.0
    vertex 2.730047 0.5449670999999999 12.0
    vertex 2.061074 0.9549147999999998 12.0
  endloop
endfacet
facet normal -0.6494479233458852 -0.7604060723466884 -0.0
  outer loop
    vertex 2.061074 0.9549147999999998 12.0
    vertex 1.4644659999999998 1.4644659999999998 0.0
    vertex 2.061074 0.9549147999999998 0.0
  endloop
endfacet
facet normal -0.6494479233458852 -0.7604060723466884 -0.0
  outer loop
    vertex 1.4644659999999998 1.4644659999999998 0.0
    vertex 2.061074 0.9549147999999998 12.0
    vertex 1.4644659999999998 1.4644659999999998 12.0
  endloop
endfacet
facet normal -0.7604060723466884 -0.6494479233458852 -0.0
  outer loop
    vertex 0.9549147999999998 2.061074 12.0
    vertex 1.4644659999999998 1.4644659999999998 0.0
    vertex 1.4644659999999998 1.4644659999999998 12.0
  endloop
endfacet
facet normal -0.7604060723466884 -0.6494479233458852 -0.0
  outer loop
    vertex 1.4644659999999998 1.4644659999999998 0.0
    vertex 0.9549147999999998 2.061074 12.0
    vertex 0.9549147999999998 2.061074 0.0
  endloop
endfacet
facet normal -0.852639870023107 -0.5224990450201603 -0.0
  outer loop
    vertex 0.5449670999999999 2.730047 12.0
    vertex 0.9549147999999998 2.061074 0.0
    vertex 0.9549147999999998 2.061074 12.0
  endloop
endfacet
facet normal -0.852639870023107 -0.5224990450201603 -0.0
  outer loop
    vertex 0.9549147999999998 2.061074 0.0
    vertex 0.5449670999999999 2.730047 12.0
    vertex 0.5449670999999999 2.730047 0.0
  endloop
endfacet
facet normal -0.9238796030470986 -0.38268326207653164 -0.0
  outer loop
    vertex 0.24471709999999997 3.454915 12.0
    vertex 0.5449670999999999 2.730047 0.0
    vertex 0.5449670999999999 2.730047 12.0
  endloop
endfacet
facet normal -0.9238796030470986 -0.38268326207653164 -0.0
  outer loop
    vertex 0.5449670999999999 2.730047 0.0
    vertex 0.24471709999999997 3.454915 12.0
    vertex 0.24471709999999997 3.454915 0.0
  endloop
endfacet
facet normal -0.9723697746533357 -0.23344597092393943 -0.0
  outer loop
    vertex 0.061557629999999995 4.217827 12.0
    vertex 0.24471709999999997 3.454915 0.0
    vertex 0.24471709999999997 3.454915 12.0
  endloop
endfacet
facet normal -0.9723697746533357 -0.23344597092393943 -0.0
  outer loop
    vertex 0.24471709999999997 3.454915 0.0
    vertex 0.061557629999999995 4.217827 12.0
    vertex 0.061557629999999995 4.217827 0.0
  endloop
endfacet
facet normal -0.9969174055238743 -0.07845818353458715 -0.0
  outer loop
    vertex 0.0 4.999999999999999 12.0
    vertex 0.061557629999999995 4.217827 0.0
    vertex 0.061557629999999995 4.217827 12.0
  endloop
endfacet
facet normal -0.9969174055238743 -0.07845818353458715 -0.0
  outer loop
    vertex 0.061557629999999995 4.217827 0.0
    vertex 0.0 4.999999999999999 12.0
    vertex 0.0 4.999999999999999 0.0
  endloop
endfacet
facet normal -1.0 0.0 0.0
  outer loop
    vertex 0.0 19.999999999999996 12.0
    vertex 0.0 4.999999999999999 0.0
    vertex 0.0 4.999999999999999 12.0
  endloop
endfacet
facet normal -1.0 0.0 0.0
  outer loop
    vertex 0.0 4.999999999999999 0.0
    vertex 0.0 19.999999999999996 12.0
    vertex 0.0 19.999999999999996 0.0
  endloop
endfacet
facet normal -0.9983081878508352 0.05814432104669485 0.0
  outer loop
    vertex 0.06761588 21.160929999999997 12.0
    vertex 0.0 19.999999999999996 0.0
    vertex 0.0 19.999999999999996 12.0
  endloop
endfacet
facet normal -0.9983081878508352 0.05814432104669485 0.0
  outer loop
    vertex 0.0 19.999999999999996 0.0
    vertex 0.06761588 21.160929999999997 12.0
    vertex 0.06761588 21.160929999999997 0.0
  endloop
endfacet
facet normal -0.9848077571469233 0.1736481542177935 0.0
  outer loop
    vertex 0.2695507999999999 22.30616 12.0
    vertex 0.06761588 21.160929999999997 0.0
    vertex 0.06761588 21.160929999999997 12.0
  endloop
endfacet
facet normal -0.9848077571469233 0.1736481542177935 0.0
  outer loop
    vertex 0.06761588 21.160929999999997 0.0
    vertex 0.2695507999999999 22.30616 12.0
    vertex 0.2695507999999999 22.30616 0.0
  endloop
endfacet
facet normal -0.9579893190194505 0.2868038783640302 0.0
  outer loop
    vertex 0.6030733 23.420199999999998 12.0
    vertex 0.2695507999999999 22.30616 0.0
    vertex 0.2695507999999999 22.30616 12.0
  endloop
endfacet
facet normal -0.9579893190194505 0.2868038783640302 0.0
  outer loop
    vertex 0.2695507999999999 22.30616 0.0
    vertex 0.6030733 23.420199999999998 12.0
    vertex 0.6030733 23.420199999999998 0.0
  endloop
endfacet
facet normal -0.9182157771129092 0.39608053052496295 0.0
  outer loop
    vertex 1.0636739999999998 24.487989999999996 12.0
    vertex 0.6030733 23.420199999999998 0.0
    vertex 0.6030733 23.420199999999998 12.0
  endloop
endfacet
facet normal -0.9182157771129092 0.39608053052496295 0.0
  outer loop
    vertex 0.6030733 23.420199999999998 0.0
    vertex 1.0636739999999998 24.487989999999996 12.0
    vertex 1.0636739999999998 24.487989999999996 0.0
  endloop
endfacet
facet normal -0.86602594597256 0.4999990609014507 0.0
  outer loop
    vertex 1.645122 25.49509 12.0
    vertex 1.0636739999999998 24.487989999999996 0.0
    vertex 1.0636739999999998 24.487989999999996 12.0
  endloop
endfacet
facet normal -0.86602594597256 0.4999990609014507 0.0
  outer loop
    vertex 1.0636739999999998 24.487989999999996 0.0
    vertex 1.645122 25.49509 12.0
    vertex 1.645122 25.49509 0.0
  endloop
endfacet
facet normal -0.8021241917928236 0.5971572497598178 0.0
  outer loop
    vertex 2.3395559999999995 26.42788 12.0
    vertex 1.645122 25.49509 0.0
    vertex 1.645122 25.49509 12.0
  endloop
endfacet
facet normal -0.8021241917928236 0.5971572497598178 0.0
  outer loop
    vertex 1.645122 25.49509 0.0
    vertex 2.3395559999999995 26.42788 12.0
    vertex 2.3395559999999995 26.42788 0.0
  endloop
endfacet
facet normal -0.7273739642145808 0.6862412958885278 0.0
  outer loop
    vertex 3.1375829999999993 27.273739999999997 12.0
    vertex 2.3395559999999995 26.42788 0.0
    vertex 2.3395559999999995 26.42788 12.0
  endloop
endfacet
facet normal -0.7273739642145808 0.6862412958885278 0.0
  outer loop
    vertex 2.3395559999999995 26.42788 0.0
    vertex 3.1375829999999993 27.273739999999997 12.0
    vertex 3.1375829999999993 27.273739999999997 0.0
  endloop
endfacet
facet normal -0.6427846003347749 0.7660469682548608 0.0
  outer loop
    vertex 3.1375829999999993 27.273739999999997 12.0
    vertex 4.028414 28.02123 0.0
    vertex 3.1375829999999993 27.273739999999997 0.0
  endloop
endfacet
facet normal -0.6427846003347749 0.7660469682548608 0.0
  outer loop
    vertex 4.028414 28.02123 0.0
    vertex 3.1375829999999993 27.273739999999997 12.0
    vertex 4.028414 28.02123 12.0
  endloop
endfacet
facet normal -0.5495136811592627 0.8354847181240337 0.0
  outer loop
    vertex 4.028414 28.02123 12.0
    vertex 4.999999999999999 28.66026 0.0
    vertex 4.028414 28.02123 0.0
  endloop
endfacet
facet normal -0.5495136811592627 0.8354847181240337 0.0
  outer loop
    vertex 4.999999999999999 28.66026 0.0
    vertex 4.028414 28.02123 12.0
    vertex 4.999999999999999 28.66026 12.0
  endloop
endfacet
facet normal -0.4487944690356642 0.8936350063437511 0.0
  outer loop
    vertex 4.999999999999999 28.66026 12.0
    vertex 6.0392019999999995 29.182159999999996 0.0
    vertex 4.999999999999999 28.66026 0.0
  endloop
endfacet
facet normal -0.4487944690356642 0.8936350063437511 0.0
  outer loop
    vertex 6.0392019999999995 29.182159999999996 0.0
    vertex 4.999999999999999 28.66026 12.0
    vertex 6.0392019999999995 29.182159999999996 12.0
  endloop
endfacet
facet normal -0.34202447375716294 0.939691044626443 0.0
  outer loop
    vertex 6.0392019999999995 29.182159999999996 12.0
    vertex 7.131967999999999 29.579899999999995 0.0
    vertex 6.0392019999999995 29.182159999999996 0.0
  endloop
endfacet
facet normal -0.34202447375716294 0.939691044626443 0.0
  outer loop
    vertex 7.131967999999999 29.579899999999995 0.0
    vertex 6.0392019999999995 29.182159999999996 12.0
    vertex 7.131967999999999 29.579899999999995 12.0
  endloop
endfacet
facet normal -0.23061401723328187 0.9730453098676995 0.0
  outer loop
    vertex 7.131967999999999 29.579899999999995 12.0
    vertex 8.263518 29.848079999999996 0.0
    vertex 7.131967999999999 29.579899999999995 0.0
  endloop
endfacet
facet normal -0.23061401723328187 0.9730453098676995 0.0
  outer loop
    vertex 8.263518 29.848079999999996 0.0
    vertex 7.131967999999999 29.579899999999995 12.0
    vertex 8.263518 29.848079999999996 12.0
  endloop
endfacet
facet normal -0.1160895245241424 0.9932387539236267 0.0
  outer loop
    vertex 8.263518 29.848079999999996 12.0
    vertex 9.418551 29.98308 0.0
    vertex 8.263518 29.848079999999996 0.0
  endloop
endfacet
facet normal -0.1160895245241424 0.9932387539236267 0.0
  outer loop
    vertex 9.418551 29.98308 0.0
    vertex 8.263518 29.848079999999996 12.0
    vertex 9.418551 29.98308 12.0
  endloop
endfacet
facet normal -0.0 1.0 0.0
  outer loop
    vertex 9.418551 29.98308 12.0
    vertex 10.581449999999998 29.98308 0.0
    vertex 9.418551 29.98308 0.0
  endloop
endfacet
facet normal -0.0 1.0 0.0
  outer loop
    vertex 10.581449999999998 29.98308 0.0
    vertex 9.418551 29.98308 12.0
    vertex 10.581449999999998 29.98308 12.0
  endloop
endfacet
facet normal 0.11608982198396377 0.9932387191565438 0.0
  outer loop
    vertex 10.581449999999998 29.98308 12.0
    vertex 11.736479999999998 29.848079999999996 0.0
    vertex 10.581449999999998 29.98308 0.0
  endloop
endfacet
facet normal 0.11608982198396377 0.9932387191565438 0.0
  outer loop
    vertex 11.736479999999998 29.848079999999996 0.0
    vertex 10.581449999999998 29.98308 12.0
    vertex 11.736479999999998 29.848079999999996 12.0
  endloop
endfacet
facet normal 0.23061401723328215 0.9730453098676995 0.0
  outer loop
    vertex 11.736479999999998 29.848079999999996 12.0
    vertex 12.868029999999997 29.579899999999995 0.0
    vertex 11.736479999999998 29.848079999999996 0.0
  endloop
endfacet
facet normal 0.23061401723328215 0.9730453098676995 0.0
  outer loop
    vertex 12.868029999999997 29.579899999999995 0.0
    vertex 11.736479999999998 29.848079999999996 12.0
    vertex 12.868029999999997 29.579899999999995 12.0
  endloop
endfacet
facet normal 0.34202336825685964 0.9396914470006805 0.0
  outer loop
    vertex 12.868029999999997 29.579899999999995 12.0
    vertex 13.960799999999999 29.182159999999996 0.0
    vertex 12.868029999999997 29.579899999999995 0.0
  endloop
endfacet
facet normal 0.34202336825685964 0.9396914470006805 0.0
  outer loop
    vertex 13.960799999999999 29.182159999999996 0.0
    vertex 12.868029999999997 29.579899999999995 12.0
    vertex 13.960799999999999 29.182159999999996 12.0
  endloop
endfacet
facet normal 0.4487951587963662 0.893634659937127 0.0
  outer loop
    vertex 13.960799999999999 29.182159999999996 12.0
    vertex 14.999999999999998 28.66026 0.0
    vertex 13.960799999999999 29.182159999999996 0.0
  endloop
endfacet
facet normal 0.4487951587963662 0.893634659937127 0.0
  outer loop
    vertex 14.999999999999998 28.66026 0.0
    vertex 13.960799999999999 29.182159999999996 12.0
    vertex 14.999999999999998 28.66026 12.0
  endloop
endfacet
facet normal 0.5495121019732239 0.8354857567816276 0.0
  outer loop
    vertex 14.999999999999998 28.66026 12.0
    vertex 15.971589999999999 28.02123 0.0
    vertex 14.999999999999998 28.66026 0.0
  endloop
endfacet
facet normal 0.5495121019732239 0.8354857567816276 0.0
  outer loop
    vertex 15.971589999999999 28.02123 0.0
    vertex 14.999999999999998 28.66026 12.0
    vertex 15.971589999999999 28.02123 12.0
  endloop
endfacet
facet normal 0.6427850237642863 0.7660466129579492 0.0
  outer loop
    vertex 15.971589999999999 28.02123 12.0
    vertex 16.86242 27.273739999999997 0.0
    vertex 15.971589999999999 28.02123 0.0
  endloop
endfacet
facet normal 0.6427850237642863 0.7660466129579492 0.0
  outer loop
    vertex 16.86242 27.273739999999997 0.0
    vertex 15.971589999999999 28.02123 12.0
    vertex 16.86242 27.273739999999997 12.0
  endloop
endfacet
facet normal 0.7273769688562841 0.686238111137413 0.0
  outer loop
    vertex 16.86242 27.273739999999997 0.0
    vertex 17.660439999999998 26.42788 12.0
    vertex 17.660439999999998 26.42788 0.0
  endloop
endfacet
facet normal 0.7273769688562841 0.686238111137413 0.0
  outer loop
    vertex 17.660439999999998 26.42788 12.0
    vertex 16.86242 27.273739999999997 0.0
    vertex 16.86242 27.273739999999997 12.0
  endloop
endfacet
facet normal 0.8021217204148217 0.5971605693938328 0.0
  outer loop
    vertex 17.660439999999998 26.42788 0.0
    vertex 18.35488 25.49509 12.0
    vertex 18.35488 25.49509 0.0
  endloop
endfacet
facet normal 0.8021217204148217 0.5971605693938328 0.0
  outer loop
    vertex 18.35488 25.49509 12.0
    vertex 17.660439999999998 26.42788 0.0
    vertex 17.660439999999998 26.42788 12.0
  endloop
endfacet
facet normal 0.8660252012601655 0.5000003507821668 0.0
  outer loop
    vertex 18.35488 25.49509 0.0
    vertex 18.93633 24.487989999999996 12.0
    vertex 18.93633 24.487989999999996 0.0
  endloop
endfacet
facet normal 0.8660252012601655 0.5000003507821668 0.0
  outer loop
    vertex 18.93633 24.487989999999996 12.0
    vertex 18.35488 25.49509 0.0
    vertex 18.35488 25.49509 12.0
  endloop
endfacet
facet normal 0.9182159960326941 0.3960800230126324 0.0
  outer loop
    vertex 18.93633 24.487989999999996 0.0
    vertex 19.39693 23.420199999999998 12.0
    vertex 19.39693 23.420199999999998 0.0
  endloop
endfacet
facet normal 0.9182159960326941 0.3960800230126324 0.0
  outer loop
    vertex 19.39693 23.420199999999998 12.0
    vertex 18.93633 24.487989999999996 0.0
    vertex 18.93633 24.487989999999996 12.0
  endloop
endfacet
facet normal 0.9579899096886865 0.28680190538882777 0.0
  outer loop
    vertex 19.39693 23.420199999999998 0.0
    vertex 19.730449999999998 22.30616 12.0
    vertex 19.730449999999998 22.30616 0.0
  endloop
endfacet
facet normal 0.9579899096886865 0.28680190538882777 0.0
  outer loop
    vertex 19.730449999999998 22.30616 12.0
    vertex 19.39693 23.420199999999998 0.0
    vertex 19.39693 23.420199999999998 12.0
  endloop
endfacet
facet normal 0.9848084806504755 0.17364405097469363 0.0
  outer loop
    vertex 19.730449999999998 22.30616 0.0
    vertex 19.932379999999995 21.160929999999997 12.0
    vertex 19.932379999999995 21.160929999999997 0.0
  endloop
endfacet
facet normal 0.9848084806504755 0.17364405097469363 0.0
  outer loop
    vertex 19.932379999999995 21.160929999999997 12.0
    vertex 19.730449999999998 22.30616 0.0
    vertex 19.730449999999998 22.30616 12.0
  endloop
endfacet
endsolid Untitled-548dc9e7
